<svg width="158" height="123" viewBox="0 0 158 123" fill="none" xmlns="http://www.w3.org/2000/svg">
<rect width="158" height="123" rx="16" fill="#FFC83A"/>
<path d="M28.28 61.338C27.344 61.338 26.4513 61.1517 25.602 60.779C24.7527 60.3977 24.0117 59.8647 23.379 59.18C22.755 58.4953 22.3087 57.6893 22.04 56.762L25.472 55.852C25.654 56.5367 26.0093 57.0697 26.538 57.451C27.0753 57.8237 27.656 58.01 28.28 58.01C28.8173 58.01 29.307 57.88 29.749 57.62C30.1997 57.36 30.555 57.009 30.815 56.567C31.0837 56.125 31.218 55.6353 31.218 55.098C31.218 54.292 30.9407 53.603 30.386 53.031C29.84 52.4503 29.138 52.16 28.28 52.16C28.02 52.16 27.7687 52.199 27.526 52.277C27.2833 52.3463 27.0493 52.446 26.824 52.576L25.238 49.794L31.192 44.854L31.452 45.608H22.768V42.28H34.468V45.608L29.84 50.08L29.814 49.092C30.8887 49.2567 31.7943 49.6337 32.531 50.223C33.2763 50.8037 33.8397 51.523 34.221 52.381C34.611 53.2303 34.806 54.136 34.806 55.098C34.806 56.2767 34.507 57.3383 33.909 58.283C33.311 59.219 32.518 59.9643 31.53 60.519C30.542 61.065 29.4587 61.338 28.28 61.338ZM45.7993 61V58.088H37.6613V54.786L43.5633 42.28H47.6193L41.7173 54.786H45.7993V50.106H49.3873V54.786H51.0513V58.088H49.3873V61H45.7993ZM60.7034 61.39C59.4641 61.39 58.3504 61.0997 57.3624 60.519C56.3831 59.9383 55.6074 59.1323 55.0354 58.101C54.4634 57.061 54.1774 55.8607 54.1774 54.5V49.066C54.1774 47.5927 54.4634 46.323 55.0354 45.257C55.6074 44.1823 56.4134 43.359 57.4534 42.787C58.4934 42.2063 59.7154 41.916 61.1194 41.916C62.0294 41.916 62.8961 42.0503 63.7194 42.319C64.5428 42.5877 65.2968 43.0427 65.9814 43.684L63.4594 46.206C63.1474 45.894 62.7878 45.6513 62.3804 45.478C61.9731 45.3047 61.5528 45.218 61.1194 45.218C60.4434 45.218 59.8541 45.3783 59.3514 45.699C58.8574 46.011 58.4718 46.4227 58.1944 46.934C57.9258 47.4367 57.7914 47.974 57.7914 48.546V51.328L57.1934 50.678C57.7308 50.132 58.3504 49.716 59.0524 49.43C59.7631 49.1353 60.4954 48.988 61.2494 48.988C62.4281 48.988 63.4638 49.2523 64.3564 49.781C65.2578 50.3097 65.9598 51.0333 66.4624 51.952C66.9738 52.8707 67.2294 53.9193 67.2294 55.098C67.2294 56.2767 66.9304 57.3427 66.3324 58.296C65.7344 59.2407 64.9414 59.9947 63.9534 60.558C62.9654 61.1127 61.8821 61.39 60.7034 61.39ZM60.7034 58.01C61.2408 58.01 61.7304 57.88 62.1724 57.62C62.6231 57.36 62.9784 57.009 63.2384 56.567C63.5071 56.125 63.6414 55.6353 63.6414 55.098C63.6414 54.5607 63.5114 54.071 63.2514 53.629C62.9914 53.1783 62.6404 52.823 62.1984 52.563C61.7564 52.2943 61.2668 52.16 60.7294 52.16C60.1921 52.16 59.6981 52.2943 59.2474 52.563C58.8054 52.823 58.4501 53.1783 58.1814 53.629C57.9214 54.071 57.7914 54.5607 57.7914 55.098C57.7914 55.618 57.9214 56.099 58.1814 56.541C58.4414 56.983 58.7924 57.3383 59.2344 57.607C59.6764 57.8757 60.1661 58.01 60.7034 58.01ZM82.7843 61.39C81.3803 61.39 80.1323 61.0997 79.0403 60.519C77.957 59.9297 77.1033 59.1063 76.4793 58.049C75.864 56.983 75.5563 55.735 75.5563 54.305V42.28H77.0643V53.993C77.0643 55.059 77.242 55.9733 77.5973 56.736C77.9613 57.49 78.4293 58.1053 79.0013 58.582C79.582 59.0587 80.2017 59.4097 80.8603 59.635C81.5277 59.8603 82.169 59.973 82.7843 59.973C83.3997 59.973 84.041 59.8603 84.7083 59.635C85.3757 59.4097 85.9953 59.0587 86.5673 58.582C87.1393 58.1053 87.603 57.49 87.9583 56.736C88.3223 55.9733 88.5043 55.059 88.5043 53.993V42.28H90.0123V54.305C90.0123 55.7263 89.7003 56.97 89.0763 58.036C88.461 59.0933 87.6073 59.9167 86.5153 60.506C85.432 61.0953 84.1883 61.39 82.7843 61.39ZM99.2297 61.39C97.9471 61.39 96.7901 61.1777 95.7587 60.753C94.7361 60.3283 93.8867 59.726 93.2107 58.946C92.5434 58.166 92.0971 57.2387 91.8717 56.164L93.4057 55.904C93.7264 57.152 94.4111 58.1357 95.4597 58.855C96.5171 59.5743 97.7867 59.934 99.2687 59.934C100.274 59.934 101.162 59.7737 101.934 59.453C102.705 59.1323 103.307 58.6817 103.741 58.101C104.174 57.5117 104.391 56.827 104.391 56.047C104.391 55.4837 104.287 55.0113 104.079 54.63C103.879 54.2487 103.619 53.9367 103.299 53.694C102.978 53.4427 102.636 53.2433 102.272 53.096C101.908 52.94 101.565 52.8143 101.245 52.719L96.5387 51.315C95.9147 51.133 95.3557 50.9077 94.8617 50.639C94.3764 50.3617 93.9647 50.0453 93.6267 49.69C93.2974 49.326 93.0417 48.9143 92.8597 48.455C92.6864 47.9957 92.5997 47.4843 92.5997 46.921C92.5997 45.9157 92.8684 45.036 93.4057 44.282C93.9431 43.528 94.6797 42.943 95.6157 42.527C96.5604 42.1023 97.6437 41.89 98.8657 41.89C100.096 41.8987 101.201 42.1283 102.181 42.579C103.16 43.021 103.962 43.6493 104.586 44.464C105.218 45.2787 105.626 46.245 105.808 47.363L104.261 47.636C104.139 46.778 103.827 46.0283 103.325 45.387C102.831 44.7457 102.198 44.2473 101.427 43.892C100.655 43.5367 99.7974 43.359 98.8527 43.359C97.9427 43.3503 97.1367 43.502 96.4347 43.814C95.7414 44.126 95.1954 44.5463 94.7967 45.075C94.3981 45.6037 94.1987 46.2017 94.1987 46.869C94.1987 47.5623 94.3851 48.117 94.7577 48.533C95.1391 48.9403 95.6027 49.261 96.1487 49.495C96.7034 49.729 97.2321 49.9197 97.7347 50.067L101.505 51.185C101.86 51.289 102.285 51.4363 102.779 51.627C103.273 51.8177 103.758 52.0907 104.235 52.446C104.711 52.7927 105.106 53.2563 105.418 53.837C105.738 54.409 105.899 55.1283 105.899 55.995C105.899 56.8357 105.738 57.5897 105.418 58.257C105.097 58.9243 104.638 59.492 104.04 59.96C103.442 60.4193 102.735 60.7703 101.921 61.013C101.106 61.2643 100.209 61.39 99.2297 61.39ZM108.539 61V42.28H114.116C114.332 42.28 114.683 42.2843 115.169 42.293C115.663 42.3017 116.131 42.3407 116.573 42.41C117.977 42.6007 119.142 43.1293 120.07 43.996C120.997 44.854 121.69 45.946 122.15 47.272C122.609 48.5893 122.839 50.0453 122.839 51.64C122.839 53.2433 122.609 54.708 122.15 56.034C121.69 57.3513 120.997 58.439 120.07 59.297C119.142 60.155 117.977 60.6793 116.573 60.87C116.131 60.9307 115.658 60.9697 115.156 60.987C114.662 60.9957 114.315 61 114.116 61H108.539ZM110.112 59.531H114.116C114.506 59.531 114.909 59.5223 115.325 59.505C115.741 59.479 116.096 59.44 116.391 59.388C117.552 59.18 118.488 58.7207 119.199 58.01C119.909 57.2907 120.425 56.385 120.746 55.293C121.075 54.1923 121.24 52.9747 121.24 51.64C121.24 50.2967 121.075 49.079 120.746 47.987C120.416 46.8863 119.896 45.9807 119.186 45.27C118.475 44.5507 117.543 44.0913 116.391 43.892C116.096 43.84 115.732 43.8053 115.299 43.788C114.874 43.762 114.48 43.749 114.116 43.749H110.112V59.531Z" fill="#1E222B"/>
<path d="M24.395 86.5043V82.3113L21 76.4243H22.449L25.025 80.8833L27.594 76.4243H29.043L25.655 82.3113V86.5043H24.395ZM32.118 86.7143C31.3666 86.7143 30.718 86.544 30.172 86.2033C29.6306 85.8627 29.213 85.3913 28.919 84.7893C28.625 84.1873 28.478 83.4967 28.478 82.7173C28.478 81.924 28.6273 81.2287 28.926 80.6313C29.2246 80.034 29.647 79.5697 30.193 79.2383C30.739 78.9023 31.3806 78.7343 32.118 78.7343C32.874 78.7343 33.525 78.9047 34.071 79.2453C34.617 79.5813 35.0346 80.0503 35.324 80.6523C35.618 81.2497 35.765 81.938 35.765 82.7173C35.765 83.506 35.618 84.2013 35.324 84.8033C35.03 85.4007 34.61 85.8697 34.064 86.2103C33.518 86.5463 32.8693 86.7143 32.118 86.7143ZM32.118 85.5313C32.902 85.5313 33.4853 85.27 33.868 84.7473C34.2506 84.2247 34.442 83.548 34.442 82.7173C34.442 81.8633 34.2483 81.1843 33.861 80.6803C33.4736 80.1717 32.8926 79.9173 32.118 79.9173C31.5906 79.9173 31.1566 80.0363 30.816 80.2743C30.4753 80.5123 30.221 80.8413 30.053 81.2613C29.885 81.6813 29.801 82.1667 29.801 82.7173C29.801 83.5667 29.997 84.248 30.389 84.7613C30.781 85.2747 31.3573 85.5313 32.118 85.5313ZM40.1762 86.7003C39.6908 86.7003 39.2732 86.6233 38.9232 86.4693C38.5778 86.3153 38.2908 86.11 38.0622 85.8533C37.8335 85.5967 37.6538 85.312 37.5232 84.9993C37.3925 84.6867 37.2992 84.367 37.2432 84.0403C37.1918 83.7137 37.1662 83.408 37.1662 83.1233V78.9443H38.4262V82.7313C38.4262 83.086 38.4588 83.429 38.5242 83.7603C38.5895 84.0917 38.6992 84.3903 38.8532 84.6563C39.0118 84.9223 39.2218 85.1323 39.4832 85.2863C39.7492 85.4403 40.0805 85.5173 40.4772 85.5173C40.7898 85.5173 41.0745 85.4637 41.3312 85.3563C41.5878 85.249 41.8072 85.0903 41.9892 84.8803C42.1712 84.6657 42.3112 84.395 42.4092 84.0683C42.5072 83.7417 42.5562 83.3613 42.5562 82.9273L43.3752 83.1793C43.3752 83.9073 43.2422 84.535 42.9762 85.0623C42.7148 85.5897 42.3438 85.9957 41.8632 86.2803C41.3872 86.5603 40.8248 86.7003 40.1762 86.7003ZM42.6962 86.5043V84.4813H42.5562V78.9443H43.8092V86.5043H42.6962ZM45.7691 86.5043V78.9443H46.8821V80.7713L46.7001 80.5333C46.7887 80.3 46.9031 80.0853 47.0431 79.8893C47.1877 79.6933 47.3487 79.5323 47.5261 79.4063C47.7221 79.2477 47.9437 79.1263 48.1911 79.0423C48.4384 78.9583 48.6904 78.9093 48.9471 78.8953C49.2037 78.8767 49.4441 78.893 49.6681 78.9443V80.1133C49.4067 80.0433 49.1197 80.0247 48.8071 80.0573C48.4944 80.09 48.2051 80.2043 47.9391 80.4003C47.6964 80.573 47.5074 80.783 47.3721 81.0303C47.2414 81.2777 47.1504 81.546 47.0991 81.8353C47.0477 82.12 47.0221 82.4117 47.0221 82.7103V86.5043H45.7691ZM58.0155 86.5043C57.5675 86.593 57.1241 86.628 56.6855 86.6093C56.2515 86.5953 55.8641 86.509 55.5235 86.3503C55.1828 86.187 54.9238 85.935 54.7465 85.5943C54.5971 85.2957 54.5155 84.9947 54.5015 84.6913C54.4921 84.3833 54.4875 84.0357 54.4875 83.6483V76.8443H55.7335V83.5923C55.7335 83.9003 55.7358 84.164 55.7405 84.3833C55.7498 84.6027 55.7988 84.7917 55.8875 84.9503C56.0555 85.249 56.3215 85.424 56.6855 85.4753C57.0541 85.5267 57.4975 85.5127 58.0155 85.4333V86.5043ZM52.9545 79.9733V78.9443H58.0155V79.9733H52.9545ZM62.4559 86.7143C61.7045 86.7143 61.0559 86.544 60.5099 86.2033C59.9685 85.8627 59.5509 85.3913 59.2569 84.7893C58.9629 84.1873 58.8159 83.4967 58.8159 82.7173C58.8159 81.924 58.9652 81.2287 59.2639 80.6313C59.5625 80.034 59.9849 79.5697 60.5309 79.2383C61.0769 78.9023 61.7185 78.7343 62.4559 78.7343C63.2119 78.7343 63.8629 78.9047 64.4089 79.2453C64.9549 79.5813 65.3725 80.0503 65.6619 80.6523C65.9559 81.2497 66.1029 81.938 66.1029 82.7173C66.1029 83.506 65.9559 84.2013 65.6619 84.8033C65.3679 85.4007 64.9479 85.8697 64.4019 86.2103C63.8559 86.5463 63.2072 86.7143 62.4559 86.7143ZM62.4559 85.5313C63.2399 85.5313 63.8232 85.27 64.2059 84.7473C64.5885 84.2247 64.7799 83.548 64.7799 82.7173C64.7799 81.8633 64.5862 81.1843 64.1989 80.6803C63.8115 80.1717 63.2305 79.9173 62.4559 79.9173C61.9285 79.9173 61.4945 80.0363 61.1539 80.2743C60.8132 80.5123 60.5589 80.8413 60.3909 81.2613C60.2229 81.6813 60.1389 82.1667 60.1389 82.7173C60.1389 83.5667 60.3349 84.248 60.7269 84.7613C61.1189 85.2747 61.6952 85.5313 62.4559 85.5313ZM71.8651 86.5043C71.4171 86.593 70.9737 86.628 70.5351 86.6093C70.1011 86.5953 69.7137 86.509 69.3731 86.3503C69.0324 86.187 68.7734 85.935 68.5961 85.5943C68.4467 85.2957 68.3651 84.9947 68.3511 84.6913C68.3417 84.3833 68.3371 84.0357 68.3371 83.6483V76.8443H69.5831V83.5923C69.5831 83.9003 69.5854 84.164 69.5901 84.3833C69.5994 84.6027 69.6484 84.7917 69.7371 84.9503C69.9051 85.249 70.1711 85.424 70.5351 85.4753C70.9037 85.5267 71.3471 85.5127 71.8651 85.4333V86.5043ZM66.8041 79.9733V78.9443H71.8651V79.9733H66.8041ZM75.5489 86.7143C74.9843 86.7143 74.5106 86.6117 74.1279 86.4063C73.7499 86.1963 73.4629 85.921 73.2669 85.5803C73.0756 85.2397 72.9799 84.8663 72.9799 84.4603C72.9799 84.0637 73.0546 83.7207 73.2039 83.4313C73.3579 83.1373 73.5726 82.8947 73.8479 82.7033C74.1233 82.5073 74.4523 82.3533 74.8349 82.2413C75.1943 82.1433 75.5956 82.0593 76.0389 81.9893C76.4869 81.9147 76.9396 81.847 77.3969 81.7863C77.8543 81.7257 78.2813 81.6673 78.6779 81.6113L78.2299 81.8703C78.2439 81.1983 78.1086 80.7013 77.8239 80.3793C77.5439 80.0573 77.0586 79.8963 76.3679 79.8963C75.9106 79.8963 75.5093 80.0013 75.1639 80.2113C74.8233 80.4167 74.5829 80.7527 74.4429 81.2193L73.2599 80.8623C73.4419 80.1997 73.7943 79.6793 74.3169 79.3013C74.8396 78.9233 75.5279 78.7343 76.3819 78.7343C77.0679 78.7343 77.6559 78.858 78.1459 79.1053C78.6406 79.348 78.9953 79.7167 79.2099 80.2113C79.3173 80.4447 79.3849 80.699 79.4129 80.9743C79.4409 81.245 79.4549 81.5297 79.4549 81.8283V86.5043H78.3489V84.6913L78.6079 84.8593C78.3233 85.4707 77.9243 85.9327 77.4109 86.2453C76.9023 86.558 76.2816 86.7143 75.5489 86.7143ZM75.7379 85.6713C76.1859 85.6713 76.5733 85.592 76.8999 85.4333C77.2313 85.27 77.4973 85.0577 77.6979 84.7963C77.8986 84.5303 78.0293 84.241 78.0899 83.9283C78.1599 83.695 78.1973 83.436 78.2019 83.1513C78.2113 82.862 78.2159 82.6403 78.2159 82.4863L78.6499 82.6753C78.2439 82.7313 77.8449 82.785 77.4529 82.8363C77.0609 82.8877 76.6899 82.9437 76.3399 83.0043C75.9899 83.0603 75.6749 83.128 75.3949 83.2073C75.1896 83.2727 74.9959 83.3567 74.8139 83.4593C74.6366 83.562 74.4919 83.695 74.3799 83.8583C74.2726 84.017 74.2189 84.2153 74.2189 84.4533C74.2189 84.6587 74.2703 84.8547 74.3729 85.0413C74.4803 85.228 74.6436 85.3797 74.8629 85.4963C75.0869 85.613 75.3786 85.6713 75.7379 85.6713ZM81.4149 86.5043V76.2143H82.6609V86.5043H81.4149ZM90.42 86.7073C89.5193 86.7073 88.7797 86.5113 88.201 86.1193C87.627 85.7227 87.2747 85.1697 87.144 84.4603L88.418 84.2573C88.5207 84.668 88.7563 84.9947 89.125 85.2373C89.4937 85.4753 89.951 85.5943 90.497 85.5943C91.015 85.5943 91.421 85.487 91.715 85.2723C92.009 85.0577 92.156 84.766 92.156 84.3973C92.156 84.1827 92.107 84.01 92.009 83.8793C91.911 83.744 91.708 83.618 91.4 83.5013C91.0967 83.3847 90.637 83.2447 90.021 83.0813C89.3537 82.904 88.8287 82.7197 88.446 82.5283C88.0633 82.337 87.7903 82.1153 87.627 81.8633C87.4637 81.6113 87.382 81.3057 87.382 80.9463C87.382 80.503 87.5033 80.1157 87.746 79.7843C87.9887 79.4483 88.327 79.1893 88.761 79.0073C89.1997 78.8253 89.7083 78.7343 90.287 78.7343C90.861 78.7343 91.3743 78.8253 91.827 79.0073C92.2797 79.1893 92.6437 79.4483 92.919 79.7843C93.199 80.1157 93.3647 80.503 93.416 80.9463L92.142 81.1773C92.0813 80.7713 91.8853 80.4517 91.554 80.2183C91.2273 79.985 90.805 79.8613 90.287 79.8473C89.797 79.8287 89.398 79.915 89.09 80.1063C88.7867 80.2977 88.635 80.5567 88.635 80.8833C88.635 81.0653 88.691 81.2217 88.803 81.3523C88.9197 81.483 89.132 81.6067 89.44 81.7233C89.7527 81.84 90.2053 81.973 90.798 82.1223C91.4653 82.2903 91.9903 82.4747 92.373 82.6753C92.7603 82.8713 93.0357 83.1047 93.199 83.3753C93.3623 83.6413 93.444 83.9703 93.444 84.3623C93.444 85.0903 93.1757 85.6643 92.639 86.0843C92.1023 86.4997 91.3627 86.7073 90.42 86.7073ZM97.1368 86.7143C96.5721 86.7143 96.0985 86.6117 95.7158 86.4063C95.3378 86.1963 95.0508 85.921 94.8548 85.5803C94.6635 85.2397 94.5678 84.8663 94.5678 84.4603C94.5678 84.0637 94.6425 83.7207 94.7918 83.4313C94.9458 83.1373 95.1605 82.8947 95.4358 82.7033C95.7111 82.5073 96.0401 82.3533 96.4228 82.2413C96.7821 82.1433 97.1835 82.0593 97.6268 81.9893C98.0748 81.9147 98.5275 81.847 98.9848 81.7863C99.4421 81.7257 99.8691 81.6673 100.266 81.6113L99.8178 81.8703C99.8318 81.1983 99.6965 80.7013 99.4118 80.3793C99.1318 80.0573 98.6465 79.8963 97.9558 79.8963C97.4985 79.8963 97.0971 80.0013 96.7518 80.2113C96.4111 80.4167 96.1708 80.7527 96.0308 81.2193L94.8478 80.8623C95.0298 80.1997 95.3821 79.6793 95.9048 79.3013C96.4275 78.9233 97.1158 78.7343 97.9698 78.7343C98.6558 78.7343 99.2438 78.858 99.7338 79.1053C100.228 79.348 100.583 79.7167 100.798 80.2113C100.905 80.4447 100.973 80.699 101.001 80.9743C101.029 81.245 101.043 81.5297 101.043 81.8283V86.5043H99.9368V84.6913L100.196 84.8593C99.9111 85.4707 99.5121 85.9327 98.9988 86.2453C98.4901 86.558 97.8695 86.7143 97.1368 86.7143ZM97.3258 85.6713C97.7738 85.6713 98.1611 85.592 98.4878 85.4333C98.8191 85.27 99.0851 85.0577 99.2858 84.7963C99.4865 84.5303 99.6171 84.241 99.6778 83.9283C99.7478 83.695 99.7851 83.436 99.7898 83.1513C99.7991 82.862 99.8038 82.6403 99.8038 82.4863L100.238 82.6753C99.8318 82.7313 99.4328 82.785 99.0408 82.8363C98.6488 82.8877 98.2778 82.9437 97.9278 83.0043C97.5778 83.0603 97.2628 83.128 96.9828 83.2073C96.7775 83.2727 96.5838 83.3567 96.4018 83.4593C96.2245 83.562 96.0798 83.695 95.9678 83.8583C95.8605 84.017 95.8068 84.2153 95.8068 84.4533C95.8068 84.6587 95.8581 84.8547 95.9608 85.0413C96.0681 85.228 96.2315 85.3797 96.4508 85.4963C96.6748 85.613 96.9665 85.6713 97.3258 85.6713ZM104.633 86.5043L101.889 78.9443H103.149L105.27 84.9153L107.384 78.9443H108.651L105.907 86.5043H104.633ZM110.058 77.6073V76.3193H111.304V77.6073H110.058ZM110.058 86.5043V78.9443H111.304V86.5043H110.058ZM118.787 86.5043V82.7173C118.787 82.358 118.754 82.0127 118.689 81.6813C118.628 81.35 118.518 81.0537 118.36 80.7923C118.206 80.5263 117.996 80.3163 117.73 80.1623C117.468 80.0083 117.137 79.9313 116.736 79.9313C116.423 79.9313 116.138 79.985 115.882 80.0923C115.63 80.195 115.413 80.3537 115.231 80.5683C115.049 80.783 114.906 81.0537 114.804 81.3803C114.706 81.7023 114.657 82.0827 114.657 82.5213L113.838 82.2693C113.838 81.5367 113.968 80.909 114.23 80.3863C114.496 79.859 114.867 79.4553 115.343 79.1753C115.823 78.8907 116.388 78.7483 117.037 78.7483C117.527 78.7483 117.944 78.8253 118.29 78.9793C118.635 79.1333 118.922 79.3387 119.151 79.5953C119.379 79.8473 119.559 80.132 119.69 80.4493C119.82 80.762 119.911 81.0817 119.963 81.4083C120.019 81.7303 120.047 82.036 120.047 82.3253V86.5043H118.787ZM113.397 86.5043V78.9443H114.517V80.9673H114.657V86.5043H113.397ZM124.926 90.0743C124.529 90.0743 124.142 90.0137 123.764 89.8923C123.386 89.771 123.038 89.5867 122.721 89.3393C122.408 89.0967 122.147 88.7887 121.937 88.4153L123.078 87.8133C123.264 88.182 123.528 88.4503 123.869 88.6183C124.214 88.7863 124.569 88.8703 124.933 88.8703C125.413 88.8703 125.812 88.7817 126.13 88.6043C126.447 88.4317 126.68 88.1727 126.83 87.8273C126.984 87.482 127.058 87.0527 127.054 86.5393V84.4743H127.201V78.9443H128.307V86.5533C128.307 86.7587 128.3 86.957 128.286 87.1483C128.276 87.3397 128.253 87.5287 128.216 87.7153C128.118 88.252 127.924 88.693 127.635 89.0383C127.345 89.3883 126.972 89.6473 126.515 89.8153C126.057 89.988 125.528 90.0743 124.926 90.0743ZM124.835 86.7143C124.13 86.7143 123.526 86.5393 123.022 86.1893C122.518 85.8347 122.128 85.3563 121.853 84.7543C121.582 84.1523 121.447 83.4733 121.447 82.7173C121.447 81.9613 121.582 81.2823 121.853 80.6803C122.128 80.0783 122.518 79.6047 123.022 79.2593C123.526 78.9093 124.128 78.7343 124.828 78.7343C125.542 78.7343 126.141 78.907 126.627 79.2523C127.112 79.5977 127.478 80.0713 127.726 80.6733C127.978 81.2753 128.104 81.9567 128.104 82.7173C128.104 83.4687 127.978 84.1477 127.726 84.7543C127.478 85.3563 127.112 85.8347 126.627 86.1893C126.141 86.5393 125.544 86.7143 124.835 86.7143ZM124.989 85.5733C125.497 85.5733 125.915 85.452 126.242 85.2093C126.568 84.962 126.809 84.6237 126.963 84.1943C127.121 83.7603 127.201 83.268 127.201 82.7173C127.201 82.1573 127.121 81.665 126.963 81.2403C126.809 80.811 126.571 80.4773 126.249 80.2393C125.927 79.9967 125.518 79.8753 125.024 79.8753C124.51 79.8753 124.086 80.0013 123.75 80.2533C123.418 80.5053 123.171 80.846 123.008 81.2753C122.849 81.7047 122.77 82.1853 122.77 82.7173C122.77 83.254 122.851 83.7393 123.015 84.1733C123.178 84.6027 123.423 84.9433 123.75 85.1953C124.081 85.4473 124.494 85.5733 124.989 85.5733ZM133.117 86.7073C132.217 86.7073 131.477 86.5113 130.898 86.1193C130.324 85.7227 129.972 85.1697 129.841 84.4603L131.115 84.2573C131.218 84.668 131.454 84.9947 131.822 85.2373C132.191 85.4753 132.648 85.5943 133.194 85.5943C133.712 85.5943 134.118 85.487 134.412 85.2723C134.706 85.0577 134.853 84.766 134.853 84.3973C134.853 84.1827 134.804 84.01 134.706 83.8793C134.608 83.744 134.405 83.618 134.097 83.5013C133.794 83.3847 133.334 83.2447 132.718 83.0813C132.051 82.904 131.526 82.7197 131.143 82.5283C130.761 82.337 130.488 82.1153 130.324 81.8633C130.161 81.6113 130.079 81.3057 130.079 80.9463C130.079 80.503 130.201 80.1157 130.443 79.7843C130.686 79.4483 131.024 79.1893 131.458 79.0073C131.897 78.8253 132.406 78.7343 132.984 78.7343C133.558 78.7343 134.072 78.8253 134.524 79.0073C134.977 79.1893 135.341 79.4483 135.616 79.7843C135.896 80.1157 136.062 80.503 136.113 80.9463L134.839 81.1773C134.779 80.7713 134.583 80.4517 134.251 80.2183C133.925 79.985 133.502 79.8613 132.984 79.8473C132.494 79.8287 132.095 79.915 131.787 80.1063C131.484 80.2977 131.332 80.5567 131.332 80.8833C131.332 81.0653 131.388 81.2217 131.5 81.3523C131.617 81.483 131.829 81.6067 132.137 81.7233C132.45 81.84 132.903 81.973 133.495 82.1223C134.163 82.2903 134.688 82.4747 135.07 82.6753C135.458 82.8713 135.733 83.1047 135.896 83.3753C136.06 83.6413 136.141 83.9703 136.141 84.3623C136.141 85.0903 135.873 85.6643 135.336 86.0843C134.8 86.4997 134.06 86.7073 133.117 86.7073Z" fill="#1E222B"/>
</svg>
