<svg width="175" height="19" viewBox="0 0 175 19" fill="none" xmlns="http://www.w3.org/2000/svg">
<path d="M5.061 15.21C6.04567 15.21 6.87167 15.0023 7.539 14.587C8.211 14.1717 8.71733 13.6023 9.058 12.879C9.40333 12.151 9.576 11.3273 9.576 10.408C9.576 10.366 9.57367 10.282 9.569 10.156C9.56433 10.0253 9.55733 9.911 9.548 9.813H6.09V10.842H8.232C8.15733 11.8453 7.86333 12.627 7.35 13.187C6.84133 13.747 6.09933 14.0247 5.124 14.02C4.37267 14.0153 3.745 13.8427 3.241 13.502C2.74167 13.1613 2.366 12.6877 2.114 12.081C1.862 11.4697 1.73833 10.7627 1.743 9.96C1.74767 9.15267 1.87367 8.44567 2.121 7.839C2.373 7.22767 2.74867 6.75167 3.248 6.411C3.74733 6.07033 4.37267 5.90233 5.124 5.907C5.84267 5.91167 6.44 6.096 6.916 6.46C7.39667 6.81933 7.74433 7.30467 7.959 7.916L9.219 7.657C8.95767 6.75167 8.48167 6.03533 7.791 5.508C7.10033 4.98067 6.19033 4.717 5.061 4.717C4.123 4.717 3.30633 4.93167 2.611 5.361C1.91567 5.78567 1.37667 6.39 0.994 7.174C0.611333 7.958 0.42 8.88667 0.42 9.96C0.42 11.0427 0.613667 11.976 1.001 12.76C1.38833 13.544 1.92967 14.1483 2.625 14.573C3.325 14.9977 4.137 15.21 5.061 15.21ZM10.9741 15H12.2271V11.206C12.2271 10.758 12.2878 10.3263 12.4091 9.911C12.5305 9.49567 12.7755 9.15733 13.1441 8.896C13.4055 8.70467 13.6925 8.59267 14.0051 8.56C14.3225 8.52733 14.6118 8.54367 14.8731 8.609V7.44C14.5371 7.36533 14.1685 7.36533 13.7671 7.44C13.3658 7.51467 13.0205 7.66867 12.7311 7.902C12.4791 8.07933 12.2645 8.32433 12.0871 8.637V7.44H10.9741V15ZM19.3361 15.21C20.0687 15.21 20.7291 15.028 21.3171 14.664C21.9051 14.2953 22.3484 13.7773 22.6471 13.11L21.4501 12.697C21.0161 13.5837 20.2927 14.027 19.2801 14.027C18.5847 14.027 18.0387 13.8147 17.6421 13.39C17.2501 12.9607 17.0284 12.354 16.9771 11.57H22.7731C22.8104 10.674 22.6937 9.90167 22.4231 9.253C22.1571 8.60433 21.7557 8.105 21.2191 7.755C20.6871 7.405 20.0407 7.23 19.2801 7.23C18.5474 7.23 17.9081 7.39567 17.3621 7.727C16.8161 8.05367 16.3914 8.52033 16.0881 9.127C15.7894 9.729 15.6401 10.443 15.6401 11.269C15.6401 12.0577 15.7917 12.7483 16.0951 13.341C16.4031 13.929 16.8347 14.3887 17.3901 14.72C17.9454 15.0467 18.5941 15.21 19.3361 15.21ZM19.3221 8.35C20.6054 8.35 21.3241 9.08967 21.4781 10.569H16.9981C17.0867 9.85033 17.3271 9.302 17.7191 8.924C18.1111 8.54133 18.6454 8.35 19.3221 8.35ZM27.6076 15.21C28.3402 15.21 29.0006 15.028 29.5886 14.664C30.1766 14.2953 30.6199 13.7773 30.9186 13.11L29.7216 12.697C29.2876 13.5837 28.5642 14.027 27.5516 14.027C26.8562 14.027 26.3102 13.8147 25.9136 13.39C25.5216 12.9607 25.2999 12.354 25.2486 11.57H31.0446C31.0819 10.674 30.9652 9.90167 30.6946 9.253C30.4286 8.60433 30.0272 8.105 29.4906 7.755C28.9586 7.405 28.3122 7.23 27.5516 7.23C26.8189 7.23 26.1796 7.39567 25.6336 7.727C25.0876 8.05367 24.6629 8.52033 24.3596 9.127C24.0609 9.729 23.9116 10.443 23.9116 11.269C23.9116 12.0577 24.0632 12.7483 24.3666 13.341C24.6746 13.929 25.1062 14.3887 25.6616 14.72C26.2169 15.0467 26.8656 15.21 27.6076 15.21ZM27.5936 8.35C28.8769 8.35 29.5956 9.08967 29.7496 10.569H25.2696C25.3582 9.85033 25.5986 9.302 25.9906 8.924C26.3826 8.54133 26.9169 8.35 27.5936 8.35ZM32.391 15H33.651V11.017C33.651 10.1397 33.84 9.48867 34.218 9.064C34.6006 8.63933 35.1046 8.427 35.73 8.427C36.262 8.427 36.6773 8.56 36.976 8.826C37.2746 9.092 37.4823 9.43733 37.599 9.862C37.7203 10.2867 37.781 10.737 37.781 11.213V15H39.041V10.821C39.041 10.4617 38.9966 10.0767 38.908 9.666C38.824 9.25067 38.67 8.861 38.446 8.497C38.2266 8.12833 37.921 7.82733 37.529 7.594C37.1416 7.36067 36.6423 7.244 36.031 7.244C34.9296 7.244 34.0896 7.63367 33.511 8.413V7.44H32.391V15ZM45.8126 15H47.0586L49.3266 7.097L51.5946 15H52.8406L55.7596 4.92H54.4506L52.2176 12.893L49.9776 4.92L48.6686 4.927L46.4356 12.893L44.1956 4.92H42.8936L45.8126 15ZM58.4728 15.21C59.7328 15.21 60.6661 14.748 61.2728 13.824V15H62.3787V10.324C62.3787 10.0253 62.3648 9.74067 62.3368 9.47C62.3088 9.19467 62.2411 8.94033 62.1338 8.707C61.9191 8.21233 61.5644 7.84367 61.0698 7.601C60.5751 7.35367 59.9871 7.23 59.3058 7.23C58.4518 7.23 57.7611 7.419 57.2338 7.797C56.7111 8.175 56.3611 8.69533 56.1838 9.358L57.3668 9.715C57.5021 9.253 57.7424 8.917 58.0878 8.707C58.4331 8.497 58.8344 8.392 59.2918 8.392C59.9451 8.392 60.4141 8.539 60.6988 8.833C60.9881 9.12233 61.1398 9.568 61.1538 10.17C60.5938 10.2493 60.0058 10.3333 59.3898 10.422C58.7784 10.506 58.2348 10.611 57.7588 10.737C57.1848 10.905 56.7321 11.1687 56.4008 11.528C56.0694 11.8827 55.9038 12.3587 55.9038 12.956C55.9038 13.362 55.9994 13.7353 56.1908 14.076C56.3868 14.4167 56.6738 14.692 57.0518 14.902C57.4344 15.1073 57.9081 15.21 58.4728 15.21ZM58.6618 14.167C58.1251 14.167 57.7378 14.0433 57.4998 13.796C57.2618 13.544 57.1427 13.2617 57.1427 12.949C57.1427 12.5943 57.2594 12.3237 57.4928 12.137C57.7308 11.9457 58.0061 11.801 58.3188 11.703C58.6874 11.6003 59.1168 11.514 59.6068 11.444C60.0968 11.374 60.6078 11.304 61.1398 11.234C61.1398 11.4067 61.1304 11.6027 61.1118 11.822C61.0978 12.0413 61.0651 12.242 61.0138 12.424C60.9251 12.8907 60.6778 13.299 60.2718 13.649C59.8704 13.9943 59.3338 14.167 58.6618 14.167ZM64.8249 18.36H66.0359L70.1519 7.44H68.8849L66.6729 13.39L64.3139 7.44H63.0049L66.0709 14.972L64.8249 18.36ZM76.8759 15.196C77.5012 15.196 78.0612 15.056 78.5559 14.776C79.0505 14.496 79.4425 14.1087 79.7319 13.614C80.0212 13.1147 80.1659 12.543 80.1659 11.899C80.1659 11.311 80.0469 10.7837 79.8089 10.317C79.5755 9.85033 79.2442 9.477 78.8149 9.197C78.3902 8.917 77.8885 8.76067 77.3099 8.728L80.0329 6.117V4.92H74.0899V6.11H78.4859L75.2099 9.071L75.8119 10.058C75.9705 9.97867 76.1409 9.91567 76.3229 9.869C76.5049 9.81767 76.6822 9.792 76.8549 9.792C77.4615 9.792 77.9515 9.988 78.3249 10.38C78.6982 10.7673 78.8849 11.2737 78.8849 11.899C78.8849 12.515 78.7005 13.019 78.3319 13.411C77.9679 13.7983 77.4802 13.9967 76.8689 14.006C76.4209 14.0107 76.0149 13.8917 75.6509 13.649C75.2915 13.4063 75.0372 13.0517 74.8879 12.585L73.6909 12.928C73.9055 13.628 74.3022 14.181 74.8809 14.587C75.4642 14.993 76.1292 15.196 76.8759 15.196ZM85.3879 15.21C86.0412 15.21 86.6245 15.063 87.1379 14.769C87.6512 14.475 88.0549 14.0713 88.3489 13.558C88.6429 13.0447 88.7899 12.4613 88.7899 11.808V8.112C88.7899 7.45867 88.6429 6.87533 88.3489 6.362C88.0549 5.84867 87.6512 5.445 87.1379 5.151C86.6245 4.857 86.0412 4.71 85.3879 4.71C84.7345 4.71 84.1512 4.857 83.6379 5.151C83.1245 5.445 82.7209 5.84867 82.4269 6.362C82.1329 6.87533 81.9859 7.45867 81.9859 8.112V11.808C81.9859 12.4613 82.1329 13.0447 82.4269 13.558C82.7209 14.0713 83.1245 14.475 83.6379 14.769C84.1512 15.063 84.7345 15.21 85.3879 15.21ZM85.3879 14.013C84.9959 14.013 84.6365 13.9173 84.3099 13.726C83.9879 13.5347 83.7312 13.278 83.5399 12.956C83.3485 12.6293 83.2529 12.27 83.2529 11.878V8.035C83.2529 7.63833 83.3485 7.279 83.5399 6.957C83.7312 6.635 83.9879 6.37833 84.3099 6.187C84.6365 5.99567 84.9959 5.9 85.3879 5.9C85.7845 5.9 86.1439 5.99567 86.4659 6.187C86.7879 6.37833 87.0445 6.635 87.2359 6.957C87.4272 7.279 87.5229 7.63833 87.5229 8.035V11.878C87.5229 12.27 87.4272 12.6293 87.2359 12.956C87.0445 13.278 86.7879 13.5347 86.4659 13.726C86.1439 13.9173 85.7845 14.013 85.3879 14.013ZM94.1515 15.21C94.8049 15.21 95.3882 15.063 95.9015 14.769C96.4149 14.475 96.8185 14.0713 97.1125 13.558C97.4065 13.0447 97.5535 12.4613 97.5535 11.808V8.112C97.5535 7.45867 97.4065 6.87533 97.1125 6.362C96.8185 5.84867 96.4149 5.445 95.9015 5.151C95.3882 4.857 94.8049 4.71 94.1515 4.71C93.4982 4.71 92.9149 4.857 92.4015 5.151C91.8882 5.445 91.4845 5.84867 91.1905 6.362C90.8965 6.87533 90.7495 7.45867 90.7495 8.112V11.808C90.7495 12.4613 90.8965 13.0447 91.1905 13.558C91.4845 14.0713 91.8882 14.475 92.4015 14.769C92.9149 15.063 93.4982 15.21 94.1515 15.21ZM94.1515 14.013C93.7595 14.013 93.4002 13.9173 93.0735 13.726C92.7515 13.5347 92.4949 13.278 92.3035 12.956C92.1122 12.6293 92.0165 12.27 92.0165 11.878V8.035C92.0165 7.63833 92.1122 7.279 92.3035 6.957C92.4949 6.635 92.7515 6.37833 93.0735 6.187C93.4002 5.99567 93.7595 5.9 94.1515 5.9C94.5482 5.9 94.9075 5.99567 95.2295 6.187C95.5515 6.37833 95.8082 6.635 95.9995 6.957C96.1909 7.279 96.2865 7.63833 96.2865 8.035V11.878C96.2865 12.27 96.1909 12.6293 95.9995 12.956C95.8082 13.278 95.5515 13.5347 95.2295 13.726C94.9075 13.9173 94.5482 14.013 94.1515 14.013ZM102.915 15.21C103.569 15.21 104.152 15.063 104.665 14.769C105.179 14.475 105.582 14.0713 105.876 13.558C106.17 13.0447 106.317 12.4613 106.317 11.808V8.112C106.317 7.45867 106.17 6.87533 105.876 6.362C105.582 5.84867 105.179 5.445 104.665 5.151C104.152 4.857 103.569 4.71 102.915 4.71C102.262 4.71 101.679 4.857 101.165 5.151C100.652 5.445 100.248 5.84867 99.9542 6.362C99.6602 6.87533 99.5132 7.45867 99.5132 8.112V11.808C99.5132 12.4613 99.6602 13.0447 99.9542 13.558C100.248 14.0713 100.652 14.475 101.165 14.769C101.679 15.063 102.262 15.21 102.915 15.21ZM102.915 14.013C102.523 14.013 102.164 13.9173 101.837 13.726C101.515 13.5347 101.259 13.278 101.067 12.956C100.876 12.6293 100.78 12.27 100.78 11.878V8.035C100.78 7.63833 100.876 7.279 101.067 6.957C101.259 6.635 101.515 6.37833 101.837 6.187C102.164 5.99567 102.523 5.9 102.915 5.9C103.312 5.9 103.671 5.99567 103.993 6.187C104.315 6.37833 104.572 6.635 104.763 6.957C104.955 7.279 105.05 7.63833 105.05 8.035V11.878C105.05 12.27 104.955 12.6293 104.763 12.956C104.572 13.278 104.315 13.5347 103.993 13.726C103.671 13.9173 103.312 14.013 102.915 14.013ZM108.137 16.568C108.571 16.6473 108.907 16.5633 109.145 16.316C109.388 16.0687 109.509 15.7 109.509 15.21V13.418H108.137V15H108.858C108.881 15.28 108.851 15.518 108.767 15.714C108.688 15.9147 108.503 16.0057 108.214 15.987L108.137 16.568ZM118.553 15.21C119.253 15.21 119.888 15.0933 120.457 14.86C121.026 14.6267 121.479 14.286 121.815 13.838C122.156 13.3853 122.326 12.8347 122.326 12.186C122.326 11.7007 122.237 11.2993 122.06 10.982C121.883 10.66 121.659 10.4033 121.388 10.212C121.117 10.016 120.837 9.86433 120.548 9.757C120.263 9.64967 120.011 9.56567 119.792 9.505L117.874 8.952C117.627 8.882 117.372 8.79333 117.111 8.686C116.85 8.574 116.63 8.42467 116.453 8.238C116.28 8.04667 116.194 7.797 116.194 7.489C116.194 7.17633 116.29 6.901 116.481 6.663C116.677 6.42033 116.941 6.23133 117.272 6.096C117.608 5.96067 117.981 5.89533 118.392 5.9C119.031 5.90467 119.589 6.08667 120.065 6.446C120.546 6.80067 120.837 7.28367 120.94 7.895L122.263 7.664C122.076 6.74467 121.64 6.026 120.954 5.508C120.273 4.98533 119.423 4.72167 118.406 4.717C117.739 4.71233 117.137 4.822 116.6 5.046C116.068 5.27 115.648 5.59433 115.34 6.019C115.032 6.439 114.878 6.94767 114.878 7.545C114.878 8.03967 114.981 8.45033 115.186 8.777C115.396 9.10367 115.667 9.365 115.998 9.561C116.334 9.75233 116.689 9.904 117.062 10.016L119.631 10.779C119.99 10.8863 120.315 11.0497 120.604 11.269C120.893 11.4837 121.038 11.8127 121.038 12.256C121.038 12.62 120.928 12.935 120.709 13.201C120.494 13.467 120.205 13.6723 119.841 13.817C119.477 13.957 119.069 14.027 118.616 14.027C117.911 14.027 117.302 13.8497 116.789 13.495C116.276 13.1357 115.937 12.6387 115.774 12.004L114.486 12.207C114.598 12.823 114.838 13.3573 115.207 13.81C115.58 14.258 116.052 14.6033 116.621 14.846C117.195 15.0887 117.839 15.21 118.553 15.21ZM124.708 18.36H125.919L130.035 7.44H128.768L126.556 13.39L124.197 7.44H122.888L125.954 14.972L124.708 18.36ZM131.331 15H132.577V4.71H131.331V15ZM134.67 15H135.93V11.017C135.93 10.1397 136.119 9.48867 136.497 9.064C136.88 8.63933 137.384 8.427 138.009 8.427C138.541 8.427 138.957 8.56 139.255 8.826C139.554 9.092 139.762 9.43733 139.878 9.862C140 10.2867 140.06 10.737 140.06 11.213V15H141.32V10.821C141.32 10.4617 141.276 10.0767 141.187 9.666C141.103 9.25067 140.949 8.861 140.725 8.497C140.506 8.12833 140.2 7.82733 139.808 7.594C139.421 7.36067 138.922 7.244 138.31 7.244C137.209 7.244 136.369 7.63367 135.79 8.413V4.92H134.67V15ZM146.416 15.21C147.149 15.21 147.809 15.028 148.397 14.664C148.985 14.2953 149.428 13.7773 149.727 13.11L148.53 12.697C148.096 13.5837 147.373 14.027 146.36 14.027C145.665 14.027 145.119 13.8147 144.722 13.39C144.33 12.9607 144.108 12.354 144.057 11.57H149.853C149.89 10.674 149.774 9.90167 149.503 9.253C149.237 8.60433 148.836 8.105 148.299 7.755C147.767 7.405 147.121 7.23 146.36 7.23C145.627 7.23 144.988 7.39567 144.442 7.727C143.896 8.05367 143.471 8.52033 143.168 9.127C142.869 9.729 142.72 10.443 142.72 11.269C142.72 12.0577 142.872 12.7483 143.175 13.341C143.483 13.929 143.915 14.3887 144.47 14.72C145.025 15.0467 145.674 15.21 146.416 15.21ZM146.402 8.35C147.685 8.35 148.404 9.08967 148.558 10.569H144.078C144.167 9.85033 144.407 9.302 144.799 8.924C145.191 8.54133 145.725 8.35 146.402 8.35ZM155.633 15V13.929C155.115 14.0083 154.671 14.0223 154.303 13.971C153.939 13.9197 153.673 13.7447 153.505 13.446C153.416 13.2873 153.367 13.1007 153.358 12.886C153.353 12.6667 153.351 12.4007 153.351 12.088V8.469H155.633V7.44H153.351V5.34H152.105V7.44H150.572V8.469H152.105V12.144C152.105 12.536 152.109 12.886 152.119 13.194C152.133 13.4973 152.214 13.796 152.364 14.09C152.541 14.4307 152.8 14.6827 153.141 14.846C153.481 15.0047 153.869 15.091 154.303 15.105C154.741 15.1237 155.185 15.0887 155.633 15Z" fill="#F8F9FB"/>
<path d="M167 7.75702L170.471 11.243L173.942 7.75702" stroke="#B2BBCE" stroke-width="1.5" stroke-linecap="round" stroke-linejoin="round"/>
</svg>
