<svg width="59" height="38" viewBox="0 0 59 38" fill="none" xmlns="http://www.w3.org/2000/svg">
<path opacity="0.5" d="M2.431 12H3.905L5.4395 6.654L6.974 12H8.448L10.769 4.08H9.196L7.711 9.525L6.226 4.08L4.653 4.091L3.168 9.525L1.683 4.08H0.11L2.431 12ZM11.9818 12H13.4778V4.08H11.9818V12ZM17.1837 12H18.6797V5.477H21.1767V4.08H14.6867V5.477H17.1837V12ZM22.2806 12H23.7766V8.733H27.3186V12H28.8146V4.08H27.3186V7.336H23.7766V4.08H22.2806V12ZM30.6887 12H32.1847V4.08H30.6887V12ZM34.0536 12H35.5716V6.72L39.0146 12H40.5326V4.08H39.0146V9.36L35.5716 4.08H34.0536V12Z" fill="#F8F9FB"/>
<path d="M2.737 34H4.004V23.92H2.737L0.84 25.054V26.447L2.737 25.299V34ZM9.47023 34H10.7162V29.548H16.0222V34H17.2682V23.92H16.0222V28.365H10.7162V23.92H9.47023V34ZM22.452 34.21C23.2033 34.21 23.8496 34.042 24.391 33.706C24.937 33.37 25.357 32.901 25.651 32.299C25.9496 31.697 26.099 31.0017 26.099 30.213C26.099 29.4337 25.952 28.7453 25.658 28.148C25.3686 27.546 24.951 27.077 24.405 26.741C23.859 26.4003 23.208 26.23 22.452 26.23C21.7146 26.23 21.073 26.398 20.527 26.734C19.981 27.0653 19.5586 27.5297 19.26 28.127C18.9613 28.7243 18.812 29.4197 18.812 30.213C18.812 30.9923 18.9566 31.683 19.246 32.285C19.54 32.887 19.96 33.3583 20.506 33.699C21.052 34.0397 21.7006 34.21 22.452 34.21ZM22.452 33.027C21.6913 33.027 21.115 32.7727 20.723 32.264C20.331 31.7507 20.135 31.067 20.135 30.213C20.135 29.387 20.324 28.715 20.702 28.197C21.08 27.6743 21.6633 27.413 22.452 27.413C23.2266 27.413 23.8076 27.6673 24.195 28.176C24.5823 28.6847 24.776 29.3637 24.776 30.213C24.776 31.0437 24.5823 31.7203 24.195 32.243C23.8123 32.7657 23.2313 33.027 22.452 33.027ZM30.5102 34.196C31.6115 34.196 32.4515 33.8063 33.0302 33.027V34H34.1432V26.44H32.8902V30.423C32.8902 31.2957 32.6988 31.9467 32.3162 32.376C31.9382 32.8007 31.4365 33.013 30.8112 33.013C30.2792 33.013 29.8638 32.88 29.5652 32.614C29.2712 32.348 29.0635 32.0027 28.9422 31.578C28.8208 31.1487 28.7602 30.6983 28.7602 30.227V26.44H27.5002V30.619C27.5002 30.9783 27.5422 31.3657 27.6262 31.781C27.7148 32.1917 27.8688 32.5813 28.0882 32.95C28.3122 33.314 28.6202 33.6127 29.0122 33.846C29.4042 34.0793 29.9035 34.196 30.5102 34.196ZM36.103 34H37.356V30.206C37.356 29.758 37.4167 29.3263 37.538 28.911C37.6594 28.4957 37.9044 28.1573 38.273 27.896C38.5344 27.7047 38.8214 27.5927 39.134 27.56C39.4514 27.5273 39.7407 27.5437 40.002 27.609V26.44C39.666 26.3653 39.2974 26.3653 38.896 26.44C38.4947 26.5147 38.1494 26.6687 37.86 26.902C37.608 27.0793 37.3934 27.3243 37.216 27.637V26.44H36.103V34Z" fill="#F8F9FB"/>
<path d="M51 26.757L54.471 30.243L57.942 26.757" stroke="#B2BBCE" stroke-width="1.5" stroke-linecap="round" stroke-linejoin="round"/>
</svg>
